  <svg width="21" height="21" viewBox="0 0 21 21" fill="none" xmlns="http://www.w3.org/2000/svg">
    <path
      d="M18.9716 20.6714L12.2898 13.9801C11.6932 14.458 11.0071 14.8364 10.2315 15.1152C9.45597 15.394 8.63068 15.5334 7.75568 15.5334C5.58807 15.5334 3.75375 14.7818 2.25273 13.2787C0.750909 11.7747 0 9.93741 0 7.76671C0 5.59602 0.750909 3.75869 2.25273 2.25474C3.75375 0.751579 5.58807 0 7.75568 0C9.9233 0 11.758 0.751579 13.2598 2.25474C14.7609 3.75869 15.5114 5.59602 15.5114 7.76671C15.5114 8.64296 15.3722 9.46942 15.0937 10.2461C14.8153 11.0228 14.4375 11.7098 13.9602 12.3073L20.6719 19.0284C20.8906 19.2475 21 19.5164 21 19.835C21 20.1536 20.8807 20.4324 20.642 20.6714C20.4233 20.8905 20.1449 21 19.8068 21C19.4688 21 19.1903 20.8905 18.9716 20.6714ZM7.75568 13.1437C9.24716 13.1437 10.5151 12.6211 11.5595 11.576C12.6032 10.5301 13.125 9.26031 13.125 7.76671C13.125 6.27312 12.6032 5.00336 11.5595 3.95744C10.5151 2.91232 9.24716 2.38976 7.75568 2.38976C6.2642 2.38976 4.99625 2.91232 3.95182 3.95744C2.90818 5.00336 2.38636 6.27312 2.38636 7.76671C2.38636 9.26031 2.90818 10.5301 3.95182 11.576C4.99625 12.6211 6.2642 13.1437 7.75568 13.1437Z"
      fill="#dddddd"
    />
  </svg>
